# xmcd
#
# Track frame offsets: 
#        150
#        3633
#        26171
#        46747
#        67153
#        71794
#        102652
#        128546
#        135084
#        139707
#        145657
#        147138
#        155548
#        162368
#        182359
#        208699
#        212243
#        236391
#        257624
#        280041
#        312168
#        327375
#
# Disc length: 4714 seconds
#
# Revision: 6
# Processed by: cddbd v1.5.2PL0 Copyright (c) Steve Scherf et al.
# Submitted via: ExactAudioCopy v0.99pb5
#
DISCID=40126816
DTITLE=Elio e le Storie Tese - Studentessi
DYEAR=2008
DGENRE=Humour
TTITLE0=Studentessi
TTITLE1=Plafone
TTITLE2=Ignudi Fra I Nudisti
TTITLE3=Tristezza
TTITLE4=Effetto Memoria [Inverno]
TTITLE5=Heavy Samba
TTITLE6=Gargaroz
TTITLE7=Suicidio A Sorpresa
TTITLE8=Allegro
TTITLE9=Andante con moto
TTITLE10=Allegro
TTITLE11=Allegretto
TTITLE12=Effetto Memoria [Primavera]
TTITLE13=La Lega Dell'Amore
TTITLE14=Indiani (A Caval Donando)
TTITLE15=Effetto Memoria [Estate]
TTITLE16=Supermassiccio
TTITLE17=La Risposta Dell'Architetto
TTITLE18=Parco Sempione
TTITLE19=Il Congresso Delle Parti Molli
TTITLE20=Single [feat. Luigi Piloni]
TTITLE21=Effetto Memoria [Autunno]
EXTD=YEAR: 2008
EXTT0=
EXTT1=
EXTT2=
EXTT3=
EXTT4=
EXTT5=
EXTT6=
EXTT7=
EXTT8=
EXTT9=
EXTT10=
EXTT11=
EXTT12=
EXTT13=
EXTT14=
EXTT15=
EXTT16=
EXTT17=
EXTT18=
EXTT19=
EXTT20=
EXTT21=
PLAYORDER=
